<svg width="70" height="70" viewBox="0 0 70 70" fill="none" xmlns="http://www.w3.org/2000/svg">
<circle cx="35" cy="35" r="35" fill="#7289DA"/>
<path fill-rule="evenodd" clip-rule="evenodd" d="M35.0207 10C21.1849 10 10 21.4583 10 35.6339C10 46.9651 17.1665 56.5568 27.1084 59.9516C28.3514 60.2068 28.8067 59.4 28.8067 58.7214C28.8067 58.1271 28.7658 56.0901 28.7658 53.9677C21.8056 55.4958 20.3562 50.912 20.3562 50.912C19.2377 47.9411 17.5804 47.1776 17.5804 47.1776C15.3023 45.6073 17.7463 45.6073 17.7463 45.6073C20.2733 45.7771 21.5992 48.2385 21.5992 48.2385C23.8358 52.1427 27.4398 51.0396 28.8897 50.3604C29.0966 48.7052 29.7599 47.5594 30.4641 46.9229C24.9128 46.3286 19.0723 44.1219 19.0723 34.2755C19.0723 31.4745 20.0658 29.1828 21.6402 27.4005C21.3918 26.7641 20.5217 24.1323 21.8891 20.6099C21.8891 20.6099 24.0017 19.9307 28.7653 23.2411C30.8047 22.68 32.9079 22.3946 35.0207 22.3922C37.1333 22.3922 39.2869 22.6896 41.2756 23.2411C46.0396 19.9307 48.1523 20.6099 48.1523 20.6099C49.5197 24.1323 48.6491 26.7641 48.4007 27.4005C50.0165 29.1828 50.9691 31.4745 50.9691 34.2755C50.9691 44.1219 45.1285 46.2859 39.5358 46.9229C40.4475 47.7292 41.2341 49.2568 41.2341 51.676C41.2341 55.1135 41.1931 57.8724 41.1931 58.7208C41.1931 59.4 41.649 60.2068 42.8914 59.9521C52.8333 56.5562 59.9999 46.9651 59.9999 35.6339C60.0409 21.4583 48.815 10 35.0207 10Z" fill="white"/>
</svg>
