<svg width="70" height="70" viewBox="0 0 70 70" fill="none" xmlns="http://www.w3.org/2000/svg">
<circle cx="35" cy="35" r="35" fill="#7289DA"/>
<path d="M41.7325 36.741C41.98 36.741 42.916 37.164 44.5315 38.0055C46.147 38.847 47.0065 39.3555 47.101 39.5265C47.1415 39.621 47.1595 39.765 47.1595 39.9585C47.1595 40.5885 46.9975 41.3175 46.6735 42.141C46.3675 42.888 45.688 43.5135 44.635 44.022C43.582 44.5305 42.6055 44.7825 41.7055 44.7825C40.6165 44.7825 38.794 44.1885 36.2515 43.0005C34.375 42.141 32.7505 41.0115 31.369 39.612C29.992 38.2125 28.5745 36.444 27.121 34.302C25.744 32.2545 25.0645 30.396 25.0825 28.731V28.5015C25.141 26.76 25.8475 25.248 27.2065 23.9655C27.6655 23.5425 28.165 23.3355 28.7005 23.3355C28.8175 23.3355 28.9885 23.349 29.218 23.3805C29.4475 23.4075 29.6275 23.4255 29.7625 23.4255C30.127 23.4255 30.379 23.4885 30.523 23.61C30.667 23.736 30.8155 23.997 30.9685 24.3975C31.1215 24.78 31.4365 25.6215 31.918 26.922C32.395 28.2225 32.6335 28.9425 32.6335 29.0775C32.6335 29.478 32.305 30.0315 31.6435 30.729C30.982 31.4265 30.6535 31.872 30.6535 32.0655C30.6535 32.2005 30.703 32.3445 30.7975 32.4975C31.45 33.897 32.4265 35.2065 33.727 36.4305C34.798 37.443 36.2425 38.4105 38.0605 39.3285C38.29 39.4635 38.5015 39.531 38.6905 39.531C38.9785 39.531 39.496 39.0675 40.243 38.1405C40.9855 37.2045 41.4805 36.741 41.7325 36.741ZM35.9005 51.9555C38.3305 51.9555 40.6615 51.4785 42.8935 50.52C45.1255 49.5615 47.0425 48.279 48.649 46.6725C50.2555 45.066 51.538 43.1445 52.4965 40.917C53.455 38.685 53.932 36.3585 53.932 33.924C53.932 31.494 53.455 29.163 52.4965 26.931C51.538 24.699 50.2555 22.782 48.649 21.1755C47.0425 19.569 45.121 18.2865 42.8935 17.328C40.6615 16.3695 38.335 15.8925 35.9005 15.8925C33.4705 15.8925 31.1395 16.3695 28.9075 17.328C26.6755 18.2865 24.7585 19.569 23.152 21.1755C21.5455 22.782 20.263 24.7035 19.3045 26.931C18.346 29.163 17.869 31.4895 17.869 33.924C17.869 37.8075 19.0165 41.331 21.316 44.49L19.048 51.1815L25.996 48.972C29.02 50.961 32.323 51.9555 35.9005 51.9555ZM35.9005 12.279C38.83 12.279 41.629 12.855 44.2975 14.0025C46.966 15.15 49.27 16.6935 51.2005 18.624C53.1355 20.559 54.6745 22.8585 55.822 25.527C56.9695 28.1955 57.5455 30.9945 57.5455 33.924C57.5455 36.8535 56.9695 39.6525 55.822 42.321C54.679 44.994 53.14 47.2935 51.205 49.2285C49.27 51.1635 46.9705 52.7025 44.302 53.85C41.6335 54.9975 38.8345 55.5735 35.905 55.5735C32.1745 55.5735 28.678 54.6735 25.4245 52.8735L13.45 56.721L17.356 45.093C15.286 41.6865 14.2555 37.965 14.2555 33.924C14.2555 30.9945 14.8315 28.1955 15.979 25.527C17.1265 22.8585 18.67 20.5545 20.6005 18.624C22.5355 16.689 24.835 15.15 27.5035 14.0025C30.172 12.8505 32.9755 12.279 35.9005 12.279Z" fill="#EEEEEE"/>
</svg>
